<svg width="17" height="16" viewBox="0 0 17 16" fill="none" xmlns="http://www.w3.org/2000/svg">
<rect x="1" y="0.5" width="15" height="15" rx="7.5" fill="white"/>
<rect x="1" y="0.5" width="15" height="15" rx="7.5" stroke="#FFBA34"/>
<path d="M6.67589 12.1209C7.09644 12.6555 7.75709 13 8.5 13C9.24291 13 9.90356 12.6555 10.3241 12.1209C9.11322 12.285 7.88679 12.285 6.67589 12.1209Z" fill="#FFBA34"/>
<path fill-rule="evenodd" clip-rule="evenodd" d="M11.8746 6.85205V6.5C11.8746 4.567 10.3637 3 8.5 3C6.63628 3 5.12544 4.567 5.12544 6.5V6.85205C5.12544 7.27455 5.00486 7.68759 4.7789 8.03912L4.22518 8.90058C3.71941 9.68743 4.10552 10.757 4.98518 11.0058C7.28637 11.6567 9.71363 11.6567 12.0148 11.0058C12.8945 10.757 13.2806 9.68743 12.7748 8.90058L12.2211 8.03912C11.9951 7.68759 11.8746 7.27455 11.8746 6.85205ZM8.5 4.625C8.70711 4.625 8.875 4.79289 8.875 5V7C8.875 7.20711 8.70711 7.375 8.5 7.375C8.29289 7.375 8.125 7.20711 8.125 7V5C8.125 4.79289 8.29289 4.625 8.5 4.625Z" fill="#FFBA34"/>
</svg>
