<svg width="13" height="12" viewBox="0 0 13 12" fill="none" xmlns="http://www.w3.org/2000/svg">
<path d="M8.87988 7C9.15602 7 9.37988 6.77614 9.37988 6.5C9.37988 6.22386 9.15602 6 8.87988 6C8.60374 6 8.37988 6.22386 8.37988 6.5C8.37988 6.77614 8.60374 7 8.87988 7Z" fill="#323335"/>
<path d="M8.87988 9C9.15602 9 9.37988 8.77614 9.37988 8.5C9.37988 8.22386 9.15602 8 8.87988 8C8.60374 8 8.37988 8.22386 8.37988 8.5C8.37988 8.77614 8.60374 9 8.87988 9Z" fill="#323335"/>
<path d="M6.87988 6.5C6.87988 6.77614 6.65602 7 6.37988 7C6.10374 7 5.87988 6.77614 5.87988 6.5C5.87988 6.22386 6.10374 6 6.37988 6C6.65602 6 6.87988 6.22386 6.87988 6.5Z" fill="#323335"/>
<path d="M6.87988 8.5C6.87988 8.77614 6.65602 9 6.37988 9C6.10374 9 5.87988 8.77614 5.87988 8.5C5.87988 8.22386 6.10374 8 6.37988 8C6.65602 8 6.87988 8.22386 6.87988 8.5Z" fill="#323335"/>
<path d="M3.87988 7C4.15603 7 4.37988 6.77614 4.37988 6.5C4.37988 6.22386 4.15603 6 3.87988 6C3.60374 6 3.37988 6.22386 3.37988 6.5C3.37988 6.77614 3.60374 7 3.87988 7Z" fill="#323335"/>
<path d="M3.87988 9C4.15603 9 4.37988 8.77614 4.37988 8.5C4.37988 8.22386 4.15603 8 3.87988 8C3.60374 8 3.37988 8.22386 3.37988 8.5C3.37988 8.77614 3.60374 9 3.87988 9Z" fill="#323335"/>
<path fill-rule="evenodd" clip-rule="evenodd" d="M3.87988 0.875C4.08699 0.875 4.25488 1.04289 4.25488 1.25V1.63136C4.58588 1.62499 4.95055 1.625 5.35161 1.625H7.40809C7.80917 1.625 8.17388 1.62499 8.50488 1.63136V1.25C8.50488 1.04289 8.67278 0.875 8.87988 0.875C9.08699 0.875 9.25488 1.04289 9.25488 1.25V1.66354C9.38485 1.67345 9.50793 1.68591 9.62439 1.70157C10.2106 1.78038 10.6851 1.94644 11.0593 2.32062C11.4334 2.6948 11.5995 3.16928 11.6783 3.75549C11.7549 4.32509 11.7549 5.0529 11.7549 5.97177V7.02821C11.7549 7.94707 11.7549 8.67491 11.6783 9.24451C11.5995 9.83072 11.4334 10.3052 11.0593 10.6794C10.6851 11.0536 10.2106 11.2196 9.62439 11.2984C9.05479 11.375 8.32698 11.375 7.40811 11.375H5.35168C4.43281 11.375 3.70497 11.375 3.13537 11.2984C2.54916 11.2196 2.07469 11.0536 1.7005 10.6794C1.32632 10.3052 1.16026 9.83072 1.08145 9.24451C1.00487 8.6749 1.00488 7.94709 1.00488 7.02821V5.97179C1.00488 5.05291 1.00487 4.3251 1.08145 3.75549C1.16026 3.16928 1.32632 2.6948 1.7005 2.32062C2.07469 1.94644 2.54916 1.78038 3.13537 1.70157C3.25183 1.68591 3.37491 1.67345 3.50488 1.66354V1.25C3.50488 1.04289 3.67278 0.875 3.87988 0.875ZM3.23531 2.44488C2.73226 2.51251 2.44244 2.63935 2.23083 2.85095C2.01923 3.06256 1.8924 3.35238 1.82476 3.85542C1.81331 3.94062 1.80373 4.0303 1.79572 4.125H10.964C10.956 4.0303 10.9465 3.94062 10.935 3.85542C10.8674 3.35238 10.7405 3.06256 10.5289 2.85095C10.3173 2.63935 10.0275 2.51251 9.52446 2.44488C9.01062 2.3758 8.33329 2.375 7.37988 2.375H5.37988C4.42647 2.375 3.74914 2.3758 3.23531 2.44488ZM1.75488 6C1.75488 5.57299 1.75504 5.20136 1.76143 4.875H10.9983C11.0047 5.20136 11.0049 5.57299 11.0049 6V7C11.0049 7.95341 11.0041 8.63074 10.935 9.14458C10.8674 9.64762 10.7405 9.93744 10.5289 10.149C10.3173 10.3607 10.0275 10.4875 9.52446 10.5551C9.01062 10.6242 8.33329 10.625 7.37988 10.625H5.37988C4.42647 10.625 3.74914 10.6242 3.23531 10.5551C2.73226 10.4875 2.44244 10.3607 2.23083 10.149C2.01923 9.93744 1.8924 9.64762 1.82476 9.14458C1.75568 8.63074 1.75488 7.95341 1.75488 7V6Z" fill="#323335"/>
</svg>
