<svg width="10" height="10" viewBox="0 0 10 10" fill="none" xmlns="http://www.w3.org/2000/svg">
<path d="M5.15664 7.25304C5.0856 7.33074 4.98517 7.375 4.87988 7.375C4.7746 7.375 4.67417 7.33074 4.60312 7.25304L2.60312 5.06554C2.46337 4.91269 2.47399 4.67549 2.62685 4.53574C2.7797 4.39599 3.0169 4.40661 3.15664 4.55946L4.50488 6.0341V0.5C4.50488 0.292893 4.67278 0.125 4.87988 0.125C5.08699 0.125 5.25488 0.292893 5.25488 0.5V6.0341L6.60312 4.55946C6.74287 4.40661 6.98007 4.39599 7.13292 4.53574C7.28577 4.67549 7.29639 4.91269 7.15664 5.06554L5.15664 7.25304Z" fill="#8F0E1F"/>
<path d="M0.754884 6.5C0.754884 6.29289 0.58699 6.125 0.379884 6.125C0.172777 6.125 0.00488308 6.29289 0.00488308 6.5V6.52744C0.00487297 7.21123 0.00486483 7.76239 0.063145 8.19588C0.123653 8.64593 0.2531 9.02487 0.554058 9.32582C0.855017 9.62678 1.23395 9.75623 1.68401 9.81674C2.11749 9.87502 2.66865 9.87501 3.35245 9.875H6.40732C7.09111 9.87501 7.64227 9.87502 8.07576 9.81674C8.52581 9.75623 8.90475 9.62678 9.20571 9.32582C9.50667 9.02487 9.63611 8.64593 9.69662 8.19588C9.7549 7.76239 9.75489 7.21123 9.75488 6.52743V6.5C9.75488 6.29289 9.58699 6.125 9.37988 6.125C9.17278 6.125 9.00488 6.29289 9.00488 6.5C9.00488 7.21771 9.00409 7.71826 8.95331 8.09594C8.90398 8.46283 8.81376 8.65711 8.67538 8.7955C8.537 8.93388 8.34271 9.0241 7.97582 9.07343C7.59815 9.1242 7.09759 9.125 6.37988 9.125H3.37988C2.66218 9.125 2.16162 9.1242 1.78394 9.07343C1.41706 9.0241 1.22277 8.93388 1.08439 8.7955C0.946007 8.65711 0.855784 8.46283 0.806457 8.09594C0.75568 7.71826 0.754884 7.21771 0.754884 6.5Z" fill="#8F0E1F"/>
</svg>
