<svg width="19" height="15" viewBox="0 0 19 15" fill="none" xmlns="http://www.w3.org/2000/svg">
<path fill-rule="evenodd" clip-rule="evenodd" d="M7.139 0.324721C7.37388 0.577665 7.35923 0.973122 7.10628 1.208L2.75945 5.24435C2.22504 5.74058 1.92139 6.43692 1.92139 7.16619C1.92139 7.93496 2.25869 8.66501 2.84409 9.16331L7.08611 12.7741C7.34896 12.9978 7.38067 13.3923 7.15693 13.6551C6.9332 13.918 6.53874 13.9497 6.27589 13.7259L2.03388 10.1152C1.16945 9.37938 0.671387 8.30137 0.671387 7.16619C0.671387 6.08934 1.11977 5.06111 1.90888 4.32836L6.25572 0.292007C6.50866 0.05713 6.90412 0.0717766 7.139 0.324721ZM9.83569 1.7308C9.74146 1.81155 9.62896 1.91114 9.4915 2.03333L6.18125 4.97577C5.51368 5.56917 5.06324 5.9715 4.77143 6.31442C4.49119 6.64376 4.43024 6.83609 4.43024 7C4.43024 7.16391 4.49119 7.35625 4.77143 7.68558C5.06324 8.02851 5.51367 8.43083 6.18125 9.02424L9.4915 11.9667C9.62896 12.0889 9.74146 12.1885 9.83569 12.2692C9.83794 12.1451 9.83824 11.9949 9.83824 11.811V9.85715C9.83824 9.51197 10.1181 9.23215 10.4632 9.23215C12.057 9.23215 13.7133 9.61042 15.1433 10.3072C15.9089 10.6803 16.6217 11.1509 17.2266 11.714C16.9193 9.17485 16.0112 7.53661 14.927 6.49921C13.577 5.20748 11.8712 4.76786 10.4632 4.76786C10.1181 4.76786 9.83824 4.48804 9.83824 4.14286V2.18904C9.83824 2.00512 9.83794 1.85487 9.83569 1.7308ZM9.43392 0.461754C9.64799 0.320418 10.0372 0.115118 10.4733 0.310937C10.9094 0.506757 11.0145 0.934084 11.0511 1.18798C11.0884 1.44652 11.0883 1.78417 11.0882 2.14594C11.0882 2.16027 11.0882 2.17464 11.0882 2.18904V3.54218C12.6079 3.66006 14.3565 4.22333 15.7912 5.59604C17.4371 7.17089 18.5882 9.73253 18.5882 13.6667C18.5882 13.9542 18.392 14.2047 18.1129 14.2735C17.8337 14.3423 17.5435 14.2118 17.4099 13.9572C16.8634 12.9163 15.8565 12.0452 14.5957 11.4309C13.5236 10.9085 12.2978 10.5872 11.0882 10.5039V11.811C11.0882 11.8254 11.0882 11.8397 11.0882 11.8541C11.0883 12.2158 11.0884 12.5535 11.0511 12.812C11.0145 13.0659 10.9094 13.4932 10.4733 13.6891C10.0372 13.8849 9.64799 13.6796 9.43392 13.5383C9.21593 13.3943 8.96361 13.17 8.69326 12.9296C8.68255 12.9201 8.67181 12.9105 8.66104 12.9009L5.31619 9.92773C4.69207 9.37299 4.17468 8.91313 3.81945 8.49566C3.44609 8.05691 3.18024 7.58454 3.18024 7C3.18024 6.41547 3.44609 5.9431 3.81945 5.50434C4.17469 5.08688 4.69206 4.62701 5.31618 4.07228L8.66104 1.09907C8.67181 1.0895 8.68254 1.07995 8.69325 1.07043C8.96361 0.830037 9.21593 0.605677 9.43392 0.461754Z" fill="#1D5178"/>
</svg>
