<svg width="17" height="16" viewBox="0 0 17 16" fill="none" xmlns="http://www.w3.org/2000/svg">
<path fill-rule="evenodd" clip-rule="evenodd" d="M8.37996 1.33301C5.43445 1.33301 3.04663 4.0014 3.04663 6.99967C3.04663 9.97446 4.74885 13.2079 7.40468 14.4493C8.02379 14.7387 8.73614 14.7387 9.35525 14.4493C12.0111 13.2079 13.7133 9.97446 13.7133 6.99967C13.7133 4.0014 11.3255 1.33301 8.37996 1.33301ZM8.37996 7.99967C9.11634 7.99967 9.7133 7.40272 9.7133 6.66634C9.7133 5.92996 9.11634 5.33301 8.37996 5.33301C7.64358 5.33301 7.04663 5.92996 7.04663 6.66634C7.04663 7.40272 7.64358 7.99967 8.37996 7.99967Z" fill="#1D5178"/>
</svg>
