<svg width="9" height="10" viewBox="0 0 9 10" fill="none" xmlns="http://www.w3.org/2000/svg">
<path fill-rule="evenodd" clip-rule="evenodd" d="M4.37988 0.333008C2.17074 0.333008 0.379883 2.03442 0.379883 4.13321C0.379883 6.21556 1.65655 8.64547 3.64842 9.51442C4.11275 9.71698 4.64701 9.71698 5.11135 9.51442C7.10322 8.64547 8.37988 6.21556 8.37988 4.13321C8.37988 2.03442 6.58902 0.333008 4.37988 0.333008ZM4.37988 5.66634C5.11626 5.66634 5.71322 5.06939 5.71322 4.33301C5.71322 3.59663 5.11626 2.99967 4.37988 2.99967C3.6435 2.99967 3.04655 3.59663 3.04655 4.33301C3.04655 5.06939 3.6435 5.66634 4.37988 5.66634Z" fill="#8F0E1F"/>
</svg>
