<svg width="14" height="16" viewBox="0 0 14 16" fill="none" xmlns="http://www.w3.org/2000/svg">
<path fill-rule="evenodd" clip-rule="evenodd" d="M6.87606 1.30289C8.00937 0.676381 9.40293 0.676381 10.5362 1.30289C10.956 1.53495 11.3478 1.91018 11.9843 2.51977C12.0048 2.53944 12.0256 2.55936 12.0467 2.57952C12.0687 2.60058 12.0904 2.62138 12.1118 2.6419C12.7458 3.24876 13.1386 3.62475 13.3825 4.02923C14.0457 5.12904 14.0457 6.48716 13.3825 7.58697C13.1386 7.99145 12.7458 8.36744 12.1118 8.9743C12.0904 8.99483 12.0687 9.01562 12.0467 9.03668L7.07535 13.7967C6.72251 14.1346 6.43495 14.4099 6.18194 14.614C5.91987 14.8254 5.66181 14.9884 5.35887 15.0755C4.93755 15.1966 4.48884 15.1966 4.06752 15.0755C3.76459 14.9884 3.50653 14.8254 3.24445 14.614C2.99146 14.4099 2.70391 14.1346 2.35109 13.7967L2.31919 13.7662C1.96659 13.4286 1.67896 13.1532 1.46563 12.9107C1.24532 12.6603 1.07113 12.4093 0.97735 12.1103C0.847394 11.6959 0.847393 11.2535 0.97735 10.8391C1.07113 10.5401 1.24532 10.2891 1.46563 10.0387C1.67896 9.79619 1.96659 9.52079 2.31919 9.18319L7.21951 4.49114C7.23706 4.47434 7.2544 4.4577 7.27155 4.44124C7.5178 4.20489 7.72574 4.0053 7.96609 3.89447C8.38925 3.69935 8.88044 3.69935 9.30361 3.89447C9.54395 4.0053 9.7519 4.20488 9.99815 4.44124C10.0153 4.4577 10.0326 4.47434 10.0502 4.49114C10.0683 4.50853 10.0863 4.52571 10.1042 4.54273C10.3488 4.77637 10.5592 4.97727 10.6772 5.21184C10.8881 5.63115 10.8881 6.12159 10.6772 6.5409C10.6079 6.67871 10.5155 6.79298 10.4165 6.89957C10.322 7.00131 10.201 7.11718 10.0602 7.25202L5.13029 11.9724C4.93084 12.1634 4.61433 12.1565 4.42335 11.957C4.23238 11.7576 4.23925 11.4411 4.4387 11.2501L9.35859 6.53931C9.5122 6.39224 9.61171 6.29667 9.68385 6.21901C9.75371 6.14379 9.77508 6.10897 9.78382 6.09158C9.85254 5.95495 9.85254 5.7978 9.78382 5.66117C9.75429 5.60244 9.6885 5.52932 9.35859 5.21343C9.03065 4.89943 8.95195 4.83351 8.88487 4.80258C8.72742 4.72998 8.54227 4.72998 8.38482 4.80258C8.31774 4.83351 8.23905 4.89942 7.9111 5.21343L3.02686 9.89008C2.65431 10.2468 2.39806 10.4928 2.21642 10.6992C2.03851 10.9014 1.96563 11.0296 1.93153 11.1384C1.86267 11.3579 1.86267 11.5915 1.93153 11.811C1.96563 11.9198 2.03851 12.048 2.21642 12.2502C2.39807 12.4566 2.65431 12.7026 3.02686 13.0593C3.3993 13.4159 3.65632 13.6614 3.87227 13.8356C4.08291 14.0055 4.22091 14.0791 4.34385 14.1144C4.58461 14.1836 4.84179 14.1836 5.08254 14.1144C5.20548 14.0791 5.34348 14.0055 5.55412 13.8356C5.77007 13.6614 6.02709 13.4159 6.39953 13.0593L11.3551 8.31439C12.0752 7.62491 12.3601 7.34596 12.5261 7.0706C12.9978 6.2884 12.9978 5.3278 12.5261 4.5456C12.3601 4.27024 12.0752 3.99129 11.3551 3.30181C10.6362 2.61347 10.3434 2.33891 10.0524 2.17806C9.22019 1.71799 8.19211 1.71799 7.35987 2.17806C7.06889 2.33891 6.77612 2.61347 6.05723 3.30181L2.06428 7.12506C1.86482 7.31603 1.54831 7.30916 1.35734 7.10971C1.16636 6.91025 1.17323 6.59374 1.37269 6.40277L5.36564 2.57952C5.3867 2.55936 5.40749 2.53944 5.42803 2.51977C6.0645 1.91018 6.45627 1.53495 6.87606 1.30289Z" fill="#232426"/>
</svg>
