<svg width="10" height="10" viewBox="0 0 10 10" fill="none" xmlns="http://www.w3.org/2000/svg">
<path fill-rule="evenodd" clip-rule="evenodd" d="M0.965669 0.585786C0.379883 1.17157 0.379883 2.11438 0.379883 4V6C0.379883 7.88562 0.379883 8.82843 0.965669 9.41421C1.55146 10 2.49426 10 4.37988 10H5.37988C7.2655 10 8.20831 10 8.7941 9.41421C9.37988 8.82843 9.37988 7.88562 9.37988 6V4C9.37988 2.11438 9.37988 1.17157 8.7941 0.585786C8.20831 0 7.2655 0 5.37988 0H4.37988C2.49426 0 1.55146 0 0.965669 0.585786ZM2.50488 3C2.50488 2.79289 2.67278 2.625 2.87988 2.625H6.87988C7.08699 2.625 7.25488 2.79289 7.25488 3C7.25488 3.20711 7.08699 3.375 6.87988 3.375H2.87988C2.67278 3.375 2.50488 3.20711 2.50488 3ZM2.50488 5C2.50488 4.79289 2.67278 4.625 2.87988 4.625H6.87988C7.08699 4.625 7.25488 4.79289 7.25488 5C7.25488 5.20711 7.08699 5.375 6.87988 5.375H2.87988C2.67278 5.375 2.50488 5.20711 2.50488 5ZM2.87988 6.625C2.67278 6.625 2.50488 6.79289 2.50488 7C2.50488 7.20711 2.67278 7.375 2.87988 7.375H5.37988C5.58699 7.375 5.75488 7.20711 5.75488 7C5.75488 6.79289 5.58699 6.625 5.37988 6.625H2.87988Z" fill="#A43443"/>
</svg>
