<svg width="23" height="24" viewBox="0 0 23 24" fill="none" xmlns="http://www.w3.org/2000/svg">
<g clip-path="url(#clip0_1888_586)">
<path d="M12.7778 16.8586L16.0144 15.2403C18.8418 13.8266 20.2555 13.1197 20.2555 12.0004C20.2555 10.881 18.8418 10.1741 16.0144 8.76043L12.7779 7.14215C10.4959 6.00115 9.35486 5.43065 8.69338 5.60577C8.06411 5.77237 7.57264 6.26384 7.40605 6.89311C7.23093 7.55459 7.80143 8.69558 8.94242 10.9776C9.08383 11.2604 9.37294 11.4485 9.68912 11.45L14.8558 11.474C15.1465 11.4754 15.3811 11.7121 15.3797 12.0028C15.3783 12.2935 15.1416 12.528 14.8509 12.5267L9.76765 12.503C9.41915 12.5014 9.09828 12.7114 8.94242 13.0231C7.80143 15.3051 7.23093 16.4461 7.40605 17.1076C7.57264 17.7369 8.06411 18.2283 8.69339 18.3949C9.35486 18.5701 10.4959 17.9996 12.7778 16.8586Z" fill="#8F0E1F"/>
</g>
<defs>
<clipPath id="clip0_1888_586">
<rect x="11.3799" y="0.686523" width="16" height="16" rx="8" transform="rotate(45 11.3799 0.686523)" fill="white"/>
</clipPath>
</defs>
</svg>
