<svg width="17" height="16" viewBox="0 0 17 16" fill="none" xmlns="http://www.w3.org/2000/svg">
<path d="M14.3799 11.2198V7.44198C14.3799 6.74625 14.3799 6.39839 14.1911 6.13651C14.0386 5.92495 13.794 5.81251 13.3577 5.66113C13.2684 6.73194 12.9138 7.82547 12.3569 8.78256C11.7084 9.89697 10.7455 10.8933 9.5112 11.4318C8.7919 11.7456 7.96787 11.7456 7.24856 11.4318C6.01431 10.8933 5.05134 9.89697 4.40288 8.78256C3.98045 8.05661 3.67442 7.25216 3.51229 6.43867C3.25727 6.40111 3.06155 6.42038 2.89266 6.51461C2.82527 6.5522 2.76247 6.59747 2.70549 6.64951C2.37988 6.9469 2.37988 7.49987 2.37988 8.60579V11.8923C2.37988 12.588 2.37988 12.9359 2.56864 13.1977C2.7574 13.4596 3.08741 13.5696 3.74743 13.7896L4.00314 13.8749L4.00315 13.8749C5.05446 14.2253 5.58012 14.4005 6.1178 14.4016C6.27975 14.4019 6.4415 14.3904 6.60177 14.3672C7.13391 14.2901 7.63382 14.0402 8.63363 13.5402C9.39984 13.1571 9.78294 12.9656 10.1899 12.8767C10.3327 12.8455 10.4774 12.8238 10.6231 12.8116C11.0382 12.7768 11.457 12.8466 12.2946 12.9862L12.2946 12.9862C13.1435 13.1277 13.568 13.1985 13.8779 13.0205C13.9831 12.9601 14.0765 12.881 14.1534 12.7871C14.3799 12.5107 14.3799 12.0804 14.3799 11.2198Z" fill="#8F0E1F"/>
<path fill-rule="evenodd" clip-rule="evenodd" d="M8.37988 1.33301C6.17074 1.33301 4.37988 3.03442 4.37988 5.13321C4.37988 7.21556 5.65655 9.64547 7.64842 10.5144C8.11275 10.717 8.64701 10.717 9.11135 10.5144C11.1032 9.64547 12.3799 7.21556 12.3799 5.13321C12.3799 3.03442 10.589 1.33301 8.37988 1.33301ZM8.37988 6.66634C9.11626 6.66634 9.71322 6.06939 9.71322 5.33301C9.71322 4.59663 9.11626 3.99967 8.37988 3.99967C7.6435 3.99967 7.04655 4.59663 7.04655 5.33301C7.04655 6.06939 7.6435 6.66634 8.37988 6.66634Z" fill="#8F0E1F"/>
</svg>
