<svg width="19" height="18" viewBox="0 0 19 18" fill="none" xmlns="http://www.w3.org/2000/svg">
<path fill-rule="evenodd" clip-rule="evenodd" d="M9.62996 1.29199C5.37277 1.29199 1.92163 4.74313 1.92163 9.00033C1.92163 10.2345 2.21124 11.3993 2.72563 12.4321C2.93208 12.8466 3.01158 13.3422 2.88132 13.829L2.38498 15.6841C2.29383 16.0248 2.60552 16.3365 2.94621 16.2453L4.80124 15.749C5.28807 15.6187 5.78372 15.6982 6.19822 15.9047C7.23097 16.4191 8.39575 16.7087 9.62996 16.7087C13.8872 16.7087 17.3383 13.2575 17.3383 9.00033C17.3383 4.74313 13.8872 1.29199 9.62996 1.29199ZM0.671631 9.00033C0.671631 4.05277 4.68241 0.0419922 9.62996 0.0419922C14.5775 0.0419922 18.5883 4.05277 18.5883 9.00033C18.5883 13.9479 14.5775 17.9587 9.62996 17.9587C8.19804 17.9587 6.8429 17.6222 5.64092 17.0236C5.46155 16.9342 5.27841 16.9153 5.12433 16.9565L3.2693 17.4528C1.99944 17.7926 0.837692 16.6308 1.17746 15.361L1.6738 13.506C1.71503 13.3519 1.69607 13.1687 1.60674 12.9894C1.00805 11.7874 0.671631 10.4322 0.671631 9.00033ZM5.67163 7.75033C5.67163 7.40515 5.95145 7.12533 6.29663 7.12533H12.9633C13.3085 7.12533 13.5883 7.40515 13.5883 7.75033C13.5883 8.0955 13.3085 8.37533 12.9633 8.37533H6.29663C5.95145 8.37533 5.67163 8.0955 5.67163 7.75033ZM5.67163 10.667C5.67163 10.3218 5.95145 10.042 6.29663 10.042H10.88C11.2251 10.042 11.505 10.3218 11.505 10.667C11.505 11.0122 11.2251 11.292 10.88 11.292H6.29663C5.95145 11.292 5.67163 11.0122 5.67163 10.667Z" fill="#1D5178"/>
</svg>
